<mxfile host="app.diagrams.net" modified="2023-11-22T07:13:20.141Z" agent="Mozilla/5.0 (Macintosh; Intel Mac OS X 10_15_7) AppleWebKit/537.36 (KHTML, like Gecko) Chrome/119.0.0.0 Safari/537.36" etag="1WhmeZtGDhRUIEygopOz" version="22.1.3" type="github">
  <diagram name="第 1 页" id="ZknkTiHTkFIjWXrP2Em_">
    <mxGraphModel dx="2074" dy="1180" grid="0" gridSize="10" guides="1" tooltips="1" connect="1" arrows="1" fold="1" page="1" pageScale="1" pageWidth="827" pageHeight="1169" math="0" shadow="0">
      <root>
        <mxCell id="0" />
        <mxCell id="1" parent="0" />
        <mxCell id="aw8PCjykxM2-NQnz8DjW-1" value="&lt;h1&gt;Diff between On-Premises,IaaS,PaaS,Saas&lt;/h1&gt;" style="text;html=1;strokeColor=none;fillColor=none;spacing=5;spacingTop=-20;whiteSpace=wrap;overflow=hidden;rounded=0;" vertex="1" parent="1">
          <mxGeometry x="37" y="26" width="767" height="45" as="geometry" />
        </mxCell>
        <mxCell id="aw8PCjykxM2-NQnz8DjW-2" value="Networking" style="rounded=0;whiteSpace=wrap;html=1;fontFamily=Futura;" vertex="1" parent="1">
          <mxGeometry x="80" y="291" width="120" height="60" as="geometry" />
        </mxCell>
        <mxCell id="aw8PCjykxM2-NQnz8DjW-3" value="Storage" style="rounded=0;whiteSpace=wrap;html=1;fontFamily=Futura;" vertex="1" parent="1">
          <mxGeometry x="80" y="231" width="120" height="60" as="geometry" />
        </mxCell>
      </root>
    </mxGraphModel>
  </diagram>
</mxfile>
